<svg version="1.2" xmlns="http://www.w3.org/2000/svg" viewBox="0 0 262 262" width="262" height="262"><style>.a{fill:#302d2e}.b{fill:#fefefe}</style><path class="a" d="m92.7 240.2c0.6-0.1 1.5-0.1 2.1 0 0.8 0.1 2.5 0 3.1 0.5 0.3 0.2 0.4 0.3 0.4 0.7-0.2 0.4-0.4 0.6-0.7 0.8l-1.1 0.3c-1.2 0.2-3 0.1-4-0.7-0.4-0.3-0.4-0.6-0.4-1.1 0.2-0.4 0.2-0.3 0.6-0.5z"/><path class="a" d="m217 157.2h0.1c0.3 0 0.7 0.2 0.9 0.5 0.8 1 1.4 2.5 1.8 3.7 0.8 2.1 1.5 4 1.2 6.4 0 0.4 0 0.4-0.4 0.7h-0.6c-0.2-0.1-0.3 0-0.3-0.3-0.4-1.2-0.5-2.5-0.9-3.8-0.4-1.1-1-2.2-1.5-3.3-0.2-0.5-0.6-1.1-0.7-1.6-0.2-0.8 0-1.6 0.4-2.3z"/><path class="a" d="m40.1 187.9c0.2 0 0.4 0 0.7 0 0.3 0.3 0.7 0.5 0.8 0.9 0.1 0.4 0 0.8-0.3 1.2-0.2 0.3-0.1 0.6-0.1 0.9v0.4c0 1.8 1.2 5 2.6 6.1 0.7 0.5 1.5 1.1 2.3 1.4q0.4 0.2 0.8 0.4c0.3 0.3 0.5 0.6 0.6 1-0.1 0.5-0.1 0.6-0.4 0.9-0.3 0.2-0.5 0.3-0.8 0.3-0.5-0.1-0.9-0.4-1.3-0.6-1.4-0.7-2.4-1.5-3.4-2.7-1.6-1.9-2.1-4.3-2.2-6.8-0.1-0.7-0.2-1.5-0.1-2.1 0.1-0.6 0.4-1 0.8-1.3z"/><path class="a" d="m45.5 181.4c0.3-0.1 0.7-0.1 1 0.2 0.2 0.1 0.5 0.4 0.5 0.6 0.2 0.6 0 1.4 0 1.9-0.1 1.3-0.2 3 0.1 4.2v0.2c0.4 1.7 1.4 3.6 2.8 4.6 0.4 0.3 1 0.5 1.4 0.9 0.3 0.3 0.3 0.5 0.3 0.9-0.2 0.5-0.3 0.5-0.7 0.8-0.2 0.1-0.4 0.1-0.6 0.1-1-0.4-2.1-1.1-2.9-1.9-1.3-1.4-2.6-4.2-2.8-6.1-0.2-1.8 0-3.7 0.1-5.5 0.2-0.4 0.4-0.6 0.8-0.9z"/><path class="a" d="m209.9 159h0.3c0.8 0.3 1.3 0.5 1.9 1.3 3.1 3.6 4.6 9.2 4 13.9 0 0.4-0.1 0.4-0.4 0.6h-0.3c-0.5-0.5-1.2-1.3-1.4-2-0.3-0.7-0.3-1.7-0.4-2.5-0.2-1.6-0.6-3.4-1.2-4.9-0.4-1.2-1.1-2.4-1.7-3.4-0.5-0.8-1.1-1.5-1.3-2.4z"/><path class="a" d="m75.4 67.1c1.4 0 2.1 0 3.2 1 0.6 1.3 0.6 2.4 0.2 3.7-0.4 1.1-1.2 2.6-2 3.3-0.3 0.3-0.8 0.5-1.1 0.7-0.3 0-0.8 0.1-1.1 0-0.7-0.2-1.6-0.9-2.3-1.3-0.2-1.1-0.3-2.2 0-3.3 0.4-1.9 1.4-3.1 3.1-4.1z"/><path class="b" d="m76 69.7c0.3 0 0.2 0 0.5 0.1 0.2 0.6 0.1 1.3-0.1 1.9-0.3 0.6-0.7 1.2-1.3 1.5l-0.4-0.3c-0.1-0.3-0.2-0.5-0.1-0.9 0.1-1 0.6-1.7 1.4-2.3z"/><path class="a" d="m178.9 62.1c0.4-0.1 0.7-0.1 1.1 0 0.9 0.2 2.3 1 2.8 1.8 0.5 0.7 0.6 1.9 0.4 2.8v0.2c-0.4 1.4-1.9 2.7-3.2 3.4-0.7 0.2-1.4 0.4-2.1 0.2-1-0.2-1.5-0.8-2-1.6-0.2-1.3 0-2.5 0.5-3.8 0.5-0.9 1.5-2.7 2.5-3z"/><path class="b" d="m179.6 65c0.4-0.1 0.4-0.1 0.8 0.2 0.3 0.5 0.1 1.1 0 1.7-0.2 0.4-0.5 0.6-0.9 0.8-0.3 0.1-0.5 0-0.8 0-0.2-0.3-0.3-0.5-0.3-0.8 0.1-0.9 0.6-1.4 1.2-1.9z"/><path class="a" d="m60.7 95c1 0 1.7 0.1 2.7 0.4 0.5 0.4 1 1.5 1.2 2 0.2 0.7 0.4 3 0 3.5v0.2c-0.8 1.1-1.6 2.2-2.9 2.8l-1.7 0.5c-0.5-0.3-1-0.6-1.4-1.1-0.5-0.7-1.1-3.4-0.9-4.3 0.1-0.6 0.6-1.2 0.6-1.8v-0.5-0.2c0.5-0.7 1.7-1.1 2.4-1.5z"/><path class="b" d="m60.9 98.6c0.4-0.1 0.6 0 0.9 0.2 0 0.2 0 0.2 0 0.4 0 0.6-0.4 1.7-0.8 2l-0.4 0.1-0.2-0.1c-0.2-0.5-0.5-1.5-0.2-2 0.1-0.4 0.4-0.5 0.7-0.6z"/><path class="a" d="m146.6 19.7c0.3-0.1 0.5-0.2 0.9-0.1 0.2 0.4 0.2 0.7 0.2 1.1-0.2 0.8-0.9 1.3-1.4 2-0.8 1.1-1.6 3-2.7 3.8-1.3 0.9-4 0.8-5.5 0.6-0.3-0.1-0.9 0.2-1.2 0.4-1 0.7-2.3 2.6-2.5 3.7-0.1 0.4-0.1 0.4 0.1 0.7l3.6 0.5c0.3 0 0.6 0 0.8 0.1 0.7 0.1 1.2 0.2 1.6 0.8 0 0.4 0 0.7-0.3 1-0.2 0.3-0.5 0.3-0.9 0.4q-1.7-0.5-3.5-0.7c-1.4-0.2-3-0.2-4.2-1.2-0.1-0.3-0.1-0.5 0-0.8 0.3-0.7 0.8-1.5 1.2-2.2 0.8-1.6 2-4.3 3.9-4.6 1.5-0.3 3.3 0 4.9-0.2 0.2 0 0.9 0 1-0.1 0.3-0.2 0.5-0.8 0.7-1.1 0.8-1.2 2-3.5 3.3-4.1z"/><path class="a" d="m105.8 29.8c0.5-0.1 0.9 0 1.4 0.2 0.8 1.2-0.5 1.9-0.3 3.1 0.1 0.9 0.9 1.8 1.5 2.2 0.5 0.4 1.1 0.7 1.4 1.3 0 0.4 0 0.8-0.3 1.2-0.4 0.5-1.1 0.9-1.6 1.3-1.6 1.1-3.4 2.1-5.1 3-1.4 0.6-2.8 1.1-4.2 1.8-1.1 0.6-2.2 1.3-3.2 2-1.1 0.7-2.1 1.3-2.9 2.3-1.2 1.7 1.8 3.9 2.7 5.2 0.6 0.7 0.9 1.6 1.1 2.5 0 0.3 0.1 0.8 0.1 1.2-0.1 0.7-2.1 1.2-2.7 1.5-0.3 0.3-0.7 0.8-0.9 1.1-0.2 0.3-0.3 0.3-0.5 0.4-0.6-0.3-1.1-0.8-1.5-1.3 0-0.3 0.1-0.6 0.2-0.9 0.3-1 1.6-1.4 2.5-1.9-0.2-1.1-1.1-2.2-1.8-3-1-1.2-1.9-2.2-2.6-3.6 0.4-1.7 1.6-2.6 2.9-3.6 3.6-2.9 8-4.8 12.1-6.9 1.1-0.5 2.1-0.9 3.1-1.6-0.9-1.5-2.3-2.9-2.6-4.7-0.1-1.2 0.5-1.9 1.2-2.8z"/><path class="a" d="m111.7 44.8l0.6-0.1c0.3 0.2 0.5 0.2 0.7 0.6 0.5 0.8 0.5 2 0.3 2.8-1.2 3.6-6.1 4.4-9 6 1.3 1.3 2.5 2.5 3 4.4 0.2 0.5 0.1 1.2 0.3 1.7l0.1 0.2c-0.1 0.5-0.2 1.1-0.6 1.5-0.7 0.8-2.3 1.1-3.3 1.4-1.3 0.4-2.4 1.1-3.3 2.3-0.5 0.7-0.8 1.6-1.1 2.5-0.6 1.6-1.6 3.7-1.2 5.5v0.2c0.1 0.8 0.8 1.1 1.3 1.7 0.3 0.4 0.4 0.9 0.5 1.4-0.1 0.2-0.2 0.3-0.4 0.4-0.5 0.2-0.6 0.1-1.1 0-0.8-0.4-1.3-1-1.7-1.7-1.2-2.5-0.4-5.5 0.4-8 0.6-1.8 1.8-4.3 3.6-5.2 1-0.5 2.2-0.8 3.2-1.4 0.5-0.2 0.9-0.3 1.1-0.7 0.1-0.8-0.1-1.8-0.6-2.4l-0.1-0.1c-1.2-1.5-3.2-2.4-4.2-4.1 0-0.1 0-0.4 0.1-0.5 0.1-0.4 1.2-1 1.6-1.1 0.9-0.3 1.9-0.4 2.8-0.6 0.9-0.2 1.6-0.6 2.5-1 1.1-0.5 2.8-0.9 3.5-2 0.5-0.6 0.7-1.5 0.5-2.2v-0.2c-0.1-0.5 0.1-0.9 0.5-1.3z"/><path class="a" d="m161.3 27.1c0.1 0 0.2 0 0.3 0 0.4 0.4 0.5 0.8 0.7 1.3-0.2 0.6-0.3 1.3-0.6 1.9-0.8 1.6-2 2.8-2.9 4.2-0.4 0.6-0.9 1.8-1.6 2.1-0.4 0.3-1 0.1-1.4 0-1.2-0.3-7.3-0.7-8.2-0.1l-0.2 0.1c-1.5 1.1-2.3 4.3-2.7 6-0.2 0.7-0.4 2-0.9 2.5-0.4 0.4-0.7 0.4-1.2 0.4-0.7 0-1.3-0.2-2-0.2-1.8-0.2-3.9-0.3-5.6-0.2-0.1 0-0.4 0-0.4 0-0.9 0.3-2.7 5.7-3 6.9-0.3 1-0.2 2.5-1 3.3l-0.2 0.2c-0.1 0-0.2 0.1-0.3 0-0.4-0.2-0.7-0.8-0.8-1.2-0.2-0.9 0.2-2 0.5-2.9l1.8-6c0.2-0.6 0.4-1.5 0.8-2.1 1.8-0.7 3.7-0.4 5.5-0.4 0.4 0 0.7 0.1 1.1 0.1 0.8 0.1 1.6 0 2.4 0 0.1 0 0.5 0.1 0.6 0 0.5-0.2 1.9-5 2.3-5.8 0.4-0.8 1.1-2 1.9-2.6 1.3-1 3.9-0.7 5.4-0.5 1.1 0.1 2.3 0.2 3.5 0.3 0.2 0 0.9 0.1 1 0 0.2 0 0.6-0.6 0.7-0.7 1-1.3 2-2.6 2.8-4 0.3-0.6 0.4-1.2 0.8-1.7 0.2-0.4 0.5-0.7 0.9-0.9z"/><path class="a" d="m145.6 69.1c0.4 0 0.4-0.1 0.7 0.1 0.1 0.6 0.2 1.3 0.2 1.9l-0.1 1.5 3.6-0.8c0.5 0.9 0.9 1.8 1.1 2.8l0.1 0.3c0.4 0.1 1.4 0.2 1.8-0.1 0.6-0.5 0.9-1.3 1.8-1.5 0.9-0.2 2.1 0.4 2.9 1 2.2 1.6 1.8 5.1 1.5 7.5l-0.5 4.2c-0.1 1.7-0.1 3.6 0 5.3 0.2 2.9 1.1 5.8 1.6 8.7l9.4 1.1c3.7 0.6 7.4 1.7 11 2.8 1.9 0.6 4.1 0.9 5.6 2.4 1.3 1.4 1.8 3.2 2.3 4.9l1.1 3.6 2.5 8.4 3.7 16.6 2.6 10.6c0.8 3.6 1.3 7.4 2.3 10.9 1.1 4 2.4 8 4 11.8l2.3 5.2c0.5 1.4 1 2.8 1.6 4.1 0 0.1 0.3 0.7 0.4 0.8 0.1 0.1 0.5 0.2 0.7 0.3 0.9 0.3 1.7 0.7 2.2 1.5 0.5 0.7 0.8 1.4 0.6 2.3-0.2 0.6-0.8 1.1-1.3 1.3-0.3 0.2-0.5 0.3-0.7 0.4 0 0.4 0 0.6 0.1 0.9l0.6 0.1c0.7 0.1 1.3-0.1 1.9-0.2 0.9-0.2 1.7-0.2 2.6-0.2 0.4-0.1 1-0.2 1.4-0.1 1.3 0.1 2.6 0.2 3.7 1 0.8 0.5 1.8 1.7 1.9 2.7 0.2 1.1-0.3 2.2-0.9 3-2.3 3-11.8 5.3-15.6 5.9-1.6 0.2-3.2 0.2-4.8 0.4-0.3 0-1.2 0-1.4 0.2-0.3 0.1-0.8 0.9-1 1.1-0.6 0.6-1.4 1.1-2.1 1.4-1.9 1-3.9 1.5-5.9 2.1l-3.1 1c-0.7 0.2-1.5 0.4-2 1l0.1 0.2c1.3 0.4 2.4 0.4 3.7 0.4 0.9 0.1 1.8 0.2 2.7 0.2 1.9 0 3.8-0.1 5.6 0.1 1.3 0.2 2.6 0.6 3.4 1.6 0.6 0.9 1.4 2.2 1.2 3.3l-0.1 0.1c-0.1 0.7-0.5 1.2-0.9 1.7-2.4 2.9-6.1 4.2-9.6 5.3-8.1 2.6-16.6 3.8-25 5.1l-25.8 3.6-18.7 2.5-11.9 1-20.8 1.2-3-0.1-5.4 0.1c-0.7-0.1-1.4 0-2-0.1l-2.1-0.6c-1.6-0.4-2.1-1-2.8-2.3 0.3-4.3 4.4-5.8 7.8-7.2 1.2-0.5 2.4-0.9 3.3-1.8 0.1-0.2 0.1-0.2 0-0.5-0.7-1.4-3.5-1.4-4.9-1.6-1.4-0.2-2.8-0.7-4.1-0.8-1.1-0.1-2.1 0.1-3.2 0-0.9-0.1-1.8-0.3-2.7-0.3-2.1-0.1-4.8 0.2-6.8-0.4l-0.2-0.1c-1.3-0.4-2.9-1.2-3.6-2.4-0.4-0.6-0.5-1.2-0.3-1.9 1.1-3.7 5.2-4.7 8.2-6.4-0.1-1.2-1-2.9-1.4-4.1l-1.7-5.1-2.4-6-3.1-9.7c-0.4-1.3-0.6-2.6-0.9-3.9l-1.5-4.9-3.5-15.3-3.5-13.7-1.9-7.5c-0.2-0.6-0.5-1.3-0.8-2-0.3-0.5-0.7-1-1-1.6-0.3-0.7-0.5-1.5-0.8-2.2-0.3-0.5-1-1.1-1.1-1.7-0.1-0.5 0.5-1.4 0.8-1.7 0.7-0.3 1.8 0 2.5 0.1q1.8-1.8 4-3.2c1.9-1.2 4-2 6-3l19.6-9.7 4.4-1.9c0.2 0 1-0.3 1.2-0.4 0-0.1 0.1-0.9 0.2-1.1l0.7-4.6 1.7-7.5c0.4-1.6 0.5-4.2 1.5-5.6 0.3-0.4 0.8-0.8 1.2-1.1 3.1-1.9 6.7-3.2 10-4.7l20.3-8.7 10.3-3.7c4.6-1.7 9-3.6 13.7-5 1-0.3 2-0.5 3-0.6z"/><path class="b" d="m89.8 177.1c0.1-0.1 0.2 0 0.3 0 0.3 0.5 0.8 1.4 0.7 2 0 0.2 0 0.1 0.1 0.3 0.2 0.6 0.2 0.9 0.1 1.4l-0.4 0.2-0.3-0.3c-0.3-0.6-0.5-1.6-0.5-2.3 0-0.3 0-0.1-0.1-0.4 0-0.4-0.1-0.6 0.1-0.9z"/><path class="b" d="m215.9 192c0.6 0 1.2 0 1.7 0 0.6 0 1.7 0.1 2.2 0.4 0.2 0 0.6 0.5 0.7 0.7 0.2 0.2 0.3 0.5 0.2 0.8-1.3 1.8-3.5 2.5-5.4 3.3l-3.5 1.3-0.6-6.1z"/><path class="b" d="m60.9 176c0.8-0.2 2.5 0.8 3.4 1 1.2 0.4 2.6 0.6 3.9 0.7 1.2 0.2 2.4 0.1 3.6 0.2 4.7 0.2 9.4 0.2 14.1-0.1 0.4-0.1 0.7 0.1 1.2 0 0.2-0.1 0.1-0.1 0.4 0l0.2 2.5c-2.8 0.2-5.6 0.6-8.4 0.7-3.8 0-7.6-0.6-11.4-1.1-2.1-0.3-4.1-0.5-6.1-0.8-0.4-0.9-1.1-2.2-0.9-3.1z"/><path class="b" d="m93.4 99.8l1 0.2c1 0.3 1.9 0.3 2.9 0.3-0.4 1-0.6 2.1-0.9 3.2l-1.2 4.3-3.5 11.8-1.2 6.2c-0.2 1.2-0.1 2.6-0.7 3.7l-0.1 0.1c-0.7 0.8-1 1.3-2 1.8l0.4-3.6c0.2-0.6 0.1-1.3 0.2-2l0.6-4.1z"/><path class="b" d="m146.7 75.9c0.2 0 0.3 0 0.4 0.2 0.3 0.4 0.3 0.7 0.3 1.2-1 0.9-2.6 1.4-3.8 1.9l-6.9 3-23.9 9.9-15.5 6c-0.7 0.3-1.5 0.1-2.2 0-0.3-0.1-0.6-0.3-0.8-0.5-0.3-0.4-0.2-1.3-0.1-1.8 0.2-0.5 1.3-0.6 1.8-0.6 1.9-0.4 3.7-1.2 5.5-1.9l8.4-3.2 13.4-5.1 14.9-6.1c1.4-0.5 2.9-0.8 4.4-1.2 1.3-0.5 2.7-1.3 4.1-1.8z"/><path class="b" d="m141.2 73.6h0.3c0.2 0.3 0.2 0.6 0.3 0.9-0.3 0.5-1 0.8-1.5 0.9-0.4 0.2-0.8 0.3-1.1 0.6-0.4 0.5-0.5 0.9-1.1 1.1-4.3 1.4-8.4 3.4-12.6 5.1l-4.9 1.8-5.2 2.2-7.9 2.9-3.1 1.3-7.3 2.7-3.9 1.2c-0.8 0.2-1.8 0.5-2.4 1-1.1 0.8-0.1 2 0.5 2.7 0.1 0.1 0.4 0.5 0.4 0.6 0.1 0.4-0.2 1.4-0.2 1.8l-1.2 5.8-1.5 8.7-1.2 5.2-2.2 13.2c-0.6-0.4-1.3-0.7-2-1.1-0.1-1.6 0.1-3.1 0.3-4.7l1.5-11.2 2.8-14.6c0.5-2.2 0.8-4.5 1.6-6.7 0-0.1 0.1-0.4 0.1-0.4 0.2-0.3 1-0.5 1.3-0.7l4.3-1.9 8.3-3.7 8.8-3.6 5.4-2.4 9-3.2c0.6-0.3 1.1-0.5 1.7-0.8l5.7-2.2c2.4-0.8 4.7-1.4 7-2.5z"/><path class="b" d="m154.9 77c0.2 0 0.3 0.1 0.4 0.1 0.5 0.5 0.7 1.1 0.7 1.8 0.1 1.4-0.3 3.1-0.5 4.5-0.2 1.6-0.2 3.1-0.1 4.7 0.1 2.9 0.7 5.7 1 8.6l1 6.5c0.1 1 0.2 1.8 0.5 2.7l0.1 0.2-2.7 0.7-1.7-10.3c-0.4-3-1-5.9-1-9 0-0.7-0.2-1.4-0.7-2-0.5-0.6-1.3-1.1-2.1-1.1-0.6 0-1.3-0.1-1.8 0.1-1.6 0.5-3.1 1.3-4.6 2l-10.8 4.2c-10.2 3.8-20.6 7-30.6 11.3-0.4 0.5-0.6 1.4-0.7 2l-1.2 5-5.1 14.6c-0.4 1.5-1.7 2.6-2.7 3.7l0.6-4.3c0.4-2.6 1.1-5.3 1.8-7.9l2.7-9 1.1-3.6c0.2-0.9 0.2-1.7 0.6-2.5 0.1-0.3 0.4-0.4 0.6-0.5 0.9-0.6 2-1 3-1.4l6.9-2.7 7.2-2.8 34.1-13.7c1.4-0.6 2.7-1.3 4-1.9z"/><path class="b" d="m149.2 86.5c0.4 0 0.5-0.1 0.8 0.1 0.4 0.4 0.7 0.9 0.9 1.4 0.3 1.3 0.4 2.7 0.5 4l0.7 5 1.5 10.3c-6 1.8-12.3 2.7-18.4 4l-17.6 3.9-4.8 1c-0.9 0.1-1.8 0.2-2.6 0.3-1 0.2-1.9 0.6-2.9 0.7-1.9 0.4-4.3 0.3-6 1.1q-0.1 0.2-0.1 0.4v0.2c-0.5 0.2-0.9 0.6-1.3 0.9-1 0.7-1.8 1.6-2.6 2.4l2.7-7.6c1.1-3.3 2.3-6.5 2.8-10 0.3-0.4 0.6-0.9 1-1.1 0.6-0.2 1.3-0.3 1.9-0.6 0.5-0.2 0.9-0.5 1.5-0.8l3.9-1.6 20.8-7.4 12.1-4.6z"/><path class="a" d="m142 104.5h1.4c0.8 0 1.6 0.3 2.2 0.9 0 0.2 0.1 0.4 0 0.5-0.4 0.6-1.4 0.9-2 1q-0.7 0.1-1.4 0.3c-0.2 0.1-0.3 0.1-0.6 0.1-0.9-0.1-1.8 0-2.7-0.1l-0.3-0.4c0-0.4 0-0.7 0.1-1.1 0.9-0.7 2.2-1 3.3-1.2z"/><path class="a" d="m118.1 109.7c0.2 0 0.4 0.1 0.6 0.1 0.2 0.2 0.3 0.4 0.4 0.6 0.1 0.6-0.2 1.3-0.5 1.7-0.6 0.9-2.3 1.6-3.3 1.8l-1.1 0.2h-0.5c-0.3-0.3-0.4-0.4-0.5-0.8-0.2-0.5 0-1 0.2-1.4 0.8-1.3 3.3-1.9 4.7-2.2z"/><path class="a" d="m128.9 107.9h2.1c0.7 0 1 0.1 1.5 0.6 0 0.5-0.2 0.9-0.5 1.2-0.8 1-3.1 1-4.3 1.1-1 0.1-1.8 0.1-2.7 0-0.3-0.1-0.3-0.2-0.5-0.5 0-0.5-0.1-1.1 0.3-1.6 0.4-0.4 0.8-0.5 1.3-0.5z"/><path class="a" d="m125 101.5h0.1c0.4 0.1 0.5 0.3 0.7 0.6 0 0.4-0.1 0.6-0.3 0.9-0.7 0.7-1.6 1-2.5 1.3l-4.1 1.4c-1.3 0.4-2.5 0.9-3.8 1l-0.2-0.1c-0.2 0-0.4-0.1-0.6-0.3-0.4-0.3-0.3-0.5-0.3-1 0.2-0.4 0.3-0.5 0.7-0.7 0.5-0.2 1.1-0.3 1.6-0.5l3.5-1c1-0.3 2-0.9 3-1.3 0.7-0.3 1.4-0.3 2.2-0.3z"/><path class="a" d="m141.2 96.5c0.3-0.1 0.9-0.2 1.1 0 0.4 0.1 0.6 0.7 0.7 1 0 0.4-0.1 0.8-0.3 1.2-0.4 0.7-1 1.1-1.8 1.3-1.9 0.5-3.8 1.2-5.8 1.4-0.5 0-1.1 0-1.4-0.3-0.4-0.2-0.3-0.4-0.4-0.8 0.5-1.1 1.5-1.4 2.6-1.8 1.6-0.5 3.7-0.9 5.1-1.9z"/><path class="b" d="m196.1 202.7c0.4-0.1 0.6-0.1 0.9 0.1l0.1 0.2c-1.3 0.9-3.1 1.2-4.6 1.7-2.3 0.6-4.6 1.2-6.8 2.1-0.7 0.3-1.5 0.6-2.1 1.1-0.5 0.5-0.8 1-0.8 1.7 0 0.5 0.2 1 0.6 1.5 0.3 0.3 0.7 0.5 1.1 0.7 1.6 0.4 3.6 0.4 5.2 0.4l6.2 0.2c0.8 0 1.6-0.1 2.4 0 1.1 0 1.6 0.5 2.2 1.3l-0.1 0.7v0.4c0 0.4-0.2 0.6-0.5 0.9-1.8 1.5-3.8 2.3-6 3.1-3.3 1.3-6.6 2.1-10 2.9l-15.6 3.4-24.7 3.5-19.6 2.4-25.1 2-6.5 0.4-4.9 0.2c-1.6 0-3.3 0.3-4.9 0.2-1.3-0.1-4.8-0.2-5.6-1.2-0.1-0.8 0.1-1.1 0.6-1.8 1.6-2.2 4.6-3.2 7-4.1 1-0.5 2.3-0.9 2.9-1.8 0.6-0.7 0.7-1.3 0.5-2.2v-0.2q-0.1-0.3-0.3-0.6c-0.3-0.5-0.9-0.9-1.4-1.2-1.4-0.6-3.1-0.7-4.5-1l-4.6-0.9c-1.9-0.4-3.9-0.5-5.9-0.7-2-0.1-4.2 0.1-6.2-0.2h-0.2l-1.2-0.2c-0.6-0.2-1.3-0.5-1.6-1.1-0.1-0.2-0.2-0.4-0.1-0.6 0.8-1.9 5.2-3.9 7-4.6l1.4 1.4c1.1 0.9 2.9 1.6 4.3 2.1l7.3 3c1.1 0.4 2.1 0.9 3.2 1.3l3.9 1.4 4.3 1.9 10.9 4.2c0.6 0.1 1.5 0.6 2.1 0.6 0.1 0 0.6-0.3 0.8-0.3l3.3-1.5 10.4-3.5c1.2-0.4 2.4-0.9 3.7-1.3l15.7-3.9 10.9-3 8.6-2 6-1.5 6.8-2 15-3.7c2.8-0.6 5.6-1.7 8.5-1.9z"/><path class="b" d="m160.9 104.2c1.2-0.1 2.7 0.1 4 0.3 6.1 0.6 12.5 1.7 18 4.5 0.4 0.7 0.7 1.5 1.1 2.2 1.4 2.7 2.6 5.4 3.4 8.2 1.5 4.9 2.4 9.9 3.4 14.8l4.3 19 2.2 9.3c1 3.4 2.2 6.8 3.6 10.1l3.1 6.9c1.9 4.1 3.4 8.6 4.2 13.1 0.3 1.4 0.6 2.9 0.5 4.4-1.9 0.9-4.1 0.7-6.3 1l-4.7 0.7-10.3 2.5-13.1 2.9-9.3 2.3-25.6 5.8-10.9 3-8.2 2.5c-3 1.1-5.8 2.3-8.8 3.1-1.5 0.5-3.3 1.2-4.9 1-1.3-0.1-2.8-0.5-4.1-0.9l-7.4-2.4-4.9-1.6-8.2-3.2c-3.2-1.3-6.7-2.3-9.7-4-0.5-0.3-0.7-0.8-1-1.4-1.2-2.9-1.9-5.9-3-8.9l-1.3-3.1-1-2.7c-0.4-1-1-2-1.3-3.1-0.5-1.5-0.8-3.1-1.2-4.6l-1.3-4.7 6.3 0.8c3.4 0.5 6.8 1.1 10.4 1.1 2.6-0.1 5.2-0.3 7.9-0.6 0.4 0 0.9-0.1 1.4-0.2 0.4 0 1.1 0.9 1.6 1 1 0.4 2.2-0.5 3-1 0.1-0.6 0.2-1.2 0.2-1.7-0.2-1.7-0.7-5-2.1-6.1-0.3-0.2-0.6-0.3-1.1-0.2-0.8 0.1-1.4 0.6-1.9 1.3l-0.1 0.1-10.3 0.3c-0.8 0.1-1.7 0-2.5 0-2 0-4 0-6-0.2-2.6-0.3-4.8-0.8-7.3-1.8-0.7-0.3-1.3-0.5-1.8-1-0.4-1-0.4-2.2-0.7-3.3l-3.7-16.4-1.7-6.8c-0.3-1.2-0.7-2.3-1-3.5l-0.8-4.1c-0.2-1.2-0.3-2.5-0.7-3.6-0.5-1.3-1.2-2-2.2-3 1.4 0 2.9 0.1 4.3 0.1 1 0 2-0.1 3.1-0.1 8.5 0.1 17.2 1 25.6 2.8l2.6 0.5c0.1 0.1 0.6 0.1 0.7 0.2 0.6 0.5 0.7 1.4 1.5 1.6 0.4 0.2 0.6 0.1 0.9 0 0.6-0.3 0.7-0.8 1-1.3 0.4-1 1.7-1.6 2.6-2.2 1.2-0.7 2.5-1.4 3.8-2 2.7-1.1 5.6-2 8.4-2.9 8.5-2.6 17.1-4.5 25.7-6.5l7.2-1.8 13.9-2.7c0.9-0.2 1.8-0.5 2.7-0.7l9.5-1.7 11.9-2.9 4-1c0.8-0.2 1.9-0.3 2.7-0.6 0.3-0.2 0.3-0.3 0.4-0.6-0.1-0.4-0.1-0.6-0.4-0.9-1.7-0.7-10.9 2.5-13.2 3.1l-4.3 1-12 2.3-30.1 6.6-15.2 3.8c-3.8 1.1-7.7 2.3-11.4 3.9-0.7 0.4-1.4 0.7-2.1 1-0.9 0.5-1.9 1.4-2.8 1.6l-0.1-0.2c0-0.3 0.3-0.8 0.4-1 1.4-1.8 3.2-3.1 4.9-4.7 1.7-1.7 3.4-3.6 5.3-5.1 0.4-0.4 1-0.7 1.6-1 0.6-0.4 1.2-1 1.8-1.2 0.6-0.3 1.3-0.3 1.8-0.5l2.7-0.5 17.1-3.4 3.6-0.9 11-2.3 9.5-1.9 4.6-1.2 4.1-1.3c0.6-0.2 1.3-0.4 2-0.5 0.6 0 1.1-0.2 1.6-0.5 0.2-0.4 0.2-0.7 0.1-1.1-0.2-0.2-0.3-0.3-0.6-0.3-0.2 0-0.3 0-0.5-0.2-0.1-0.2-0.2-0.5-0.2-0.8z"/><path class="a" d="m60.6 140.2c0.2 0 0.5 0 0.7 0.1 0.4 0.3 0.7 1 0.8 1.5 0.1 0.8 0 1.3-0.4 2l-0.4 0.2c-0.4-0.2-0.5-0.2-0.8-0.6-0.1-0.8-0.4-2.2-0.3-3z"/><path class="a" d="m190.7 191h0.3q0.7-0.2 1.4 0.2c0.5 0.4 0.8 0.8 1 1.4-0.1 0.4-0.2 0.6-0.5 0.8-0.5 0.3-1 0.1-1.5-0.1-0.5-0.2-0.8-1-1-1.5 0-0.4 0.1-0.5 0.3-0.8z"/><path class="a" d="m78.8 203.8h0.2c0.9 0.8 1.6 2.3 2.2 3.4 0 0.5 0 0.5-0.3 0.9-0.5 0-0.6 0-1-0.2-0.5-0.9-1.5-2.4-1.5-3.4 0-0.3 0.1-0.4 0.4-0.7z"/><path class="a" d="m83.5 205.2c0.3 0 0.2 0 0.4 0.1 0.7 0.5 2 2.5 2.1 3.3 0.1 0.3-0.1 0.5-0.3 0.7l-0.3 0.2c-0.2 0-0.4 0-0.6-0.2-0.6-0.4-1.4-1.8-1.5-2.5-0.1-0.6-0.1-1.1 0.2-1.6z"/><path class="a" d="m74.3 200.4c0.3 0 0.4 0 0.6 0.1 0.5 0.5 0.5 1.2 0.7 1.9 0.4 1.4 0.7 2.6 0.8 4.1l-0.3 0.2c-0.2 0.2-0.4 0.2-0.6 0.3-0.4-0.3-0.5-0.5-0.6-1l-0.1-0.2-0.1-0.3c-0.2-1-0.9-4.3-0.4-5.1z"/><path class="a" d="m194.8 183.3c0.2 0 0.5-0.1 0.7 0.1 0.3 0.2 0.5 0.4 0.6 0.8 0.5 2.5 1.6 4.8 2 7.3 0.1 0.6-0.1 1-0.4 1.4h-0.3c-0.2-0.1-0.5-0.2-0.7-0.5-0.5-0.7-2.3-5.9-2.1-6.7v-0.1c-0.2-0.5-0.5-0.9-0.6-1.4 0.2-0.4 0.4-0.6 0.8-0.9z"/><path class="a" d="m55.3 138.6c0.3 0 0.4 0 0.6 0.2 0.6 0.6 1.1 2.9 1.3 3.7 0.8 2.4 1.6 4.7 2.1 7.2 0.2 0.9 0.5 1.9 0.5 2.8 0 0.5-0.1 0.7-0.4 1.1-0.1 0-0.3 0-0.4 0-0.3-0.1-0.4-0.2-0.6-0.4-0.4-0.5-0.4-1.3-0.5-1.9-0.1-0.7-0.3-1.5-0.5-2.2l-0.8-3.4-1.2-4.1c-0.2-0.9-0.6-1.9-0.5-2.7z"/><path class="a" d="m195 176.2c0.2-0.1 0.3-0.2 0.6-0.1 0.4 0 0.7 0.3 0.9 0.6 1.7 2.4 2.9 5.1 3.8 7.9 0.5 1.5 1.1 3.1 1.3 4.7 0.1 0.5-0.1 0.7-0.3 1.1l-0.4 0.1c-0.3-0.1-0.6-0.2-0.7-0.5-0.2-0.3-0.2-0.7-0.3-1.1l-1.3-3.7c-0.8-2.3-1.9-4.2-3-6.4-0.2-0.4-0.1-0.4 0-0.8l-0.4-0.5c-0.3-0.6-0.4-0.7-0.2-1.3z"/><path class="a" d="m170.4 135.3c0.5-0.1 1.2-0.2 1.7 0.1 1.3 0.8 2.3 4.4 2.6 5.8q0.3 1.3-0.1 2.6c-0.3 1.6-1.2 3-2.7 3.9-1.5 0.9-3.1 0.8-4.8 0.4q-1.3-0.4-2.3-1.2c-1.4-1-2.5-2.1-2.7-3.8-0.1-0.8 0-1.9 0.5-2.5 1.2-1.6 3.3-2.3 5.2-2.6 0.2-0.4 0.3-0.9 0.4-1.4 0.8-0.6 1.2-1.1 2.2-1.3z"/><path class="b" d="m169.3 138l2.4 0.7c0.4 0.1 0.7 0.6 0.8 1 0.7 1.5 0.7 3.1 0.1 4.6-0.3 0.6-0.7 1.3-1.3 1.6h-0.2q-0.2 0.1-0.5 0.2c-1.9 0.4-3.7-0.6-5.2-1.6-0.4-0.3-0.9-0.7-1.2-1.2q-0.3-0.6 0-1.3c0.4-0.9 2.5-2 3.5-2.3-0.1 0.6 0 1 0.1 1.6 0.3 0.5 0.7 0.7 1.2 0.9 0.5 0.2 0.8 0.1 1.1-0.1 0.2-0.2 0.4-0.4 0.5-0.7 0.2-1.1-0.7-2.5-1.3-3.4z"/><path class="a" d="m89.2 140.3l0.2-0.1c0.3-0.1 0.6 0.1 0.8 0.2 0.5 0.5 0.5 1.7 0.7 2.4l1.4 4.7c0.5 2 1.4 3.8 2 5.8 0.9 2.6 1.6 5.4 2.3 8.1 1.2 5.1 1.7 10.4 2.7 15.6l1.2 5.3 1.5 8.4 2.2 11.2 1 6.2c0.1 0.9 0.3 1.8 0.6 2.6 0.2 0.7 0.7 1.5 0.7 2.2 0.1 0.5-0.2 0.6-0.4 0.9-0.3 0.1-0.3 0.1-0.6 0.1-0.5-0.5-0.9-0.7-1.1-1.4-0.7-2.4-0.9-5-1.3-7.5l-1.4-7.5-2-10c-0.1-0.8-0.2-1.7-0.3-2.5l-1.5-5.9-2.9-16.9c-0.9-4.3-2.5-8.5-3.8-12.6l-1.3-4.7c-0.3-1.1-0.9-2.2-1.1-3.2-0.1-0.6 0.1-0.9 0.4-1.4z"/><path class="a" d="m115.3 146.1c0.9 0 1.3 0.4 2.1 0.7 1.2 0.3 2.6 0.4 3.8 0.5 0.7 0 2.4-0.3 3 0l0.2 0.1c0.9 0.6 1.7 1.3 2.4 2.1 1 1.2 1.9 2.9 1.7 4.6-0.2 1.6-1.5 3-2.7 4q-1 0.6-2.1 0.9c-1.8 0.4-4.4 0-5.9-1-1.2-0.8-1.8-1.9-2.1-3.2-0.3-1.8-0.5-3.9 0.5-5.4 0.2-0.2 0.3-0.4 0.4-0.6-0.6-0.3-1.3-0.7-1.8-1.2-0.1-0.3-0.2-0.7-0.1-1 0.2-0.4 0.3-0.4 0.6-0.5z"/><path class="b" d="m118.3 149.3c1.3 0.5 2.4 0.8 3.6 1.6-0.1 0.3-0.3 0.7-0.4 1.1-0.1 0.5 0.1 0.8 0.3 1.1 0.5 0.5 0.8 0.6 1.4 0.7 0.4-0.2 0.7-0.4 0.9-0.8 0.3-0.4 0.1-0.9 0-1.4v-0.1c-0.1-0.4-0.1-0.8 0.1-1.2h0.3c1 0.7 1.7 2.1 1.9 3.3 0 0.4 0 0.8-0.1 1.1-0.5 1-1.8 1.9-2.9 2.2-1.4 0.4-3 0.1-4.2-0.6-1-0.6-1.4-1.7-1.7-2.8-0.3-1.5-0.1-2.9 0.8-4.2z"/><path class="a" d="m154.3 162.7h1.2c3.3 0.1 6.3 1.2 8.6 3.7 0.9 1 1.8 2.6 2.1 3.9 0.2 1.1 0.1 2.3 0 3.3 1.5 0.1 3.1 0.3 4.3 1.3 1 0.7 1.2 1.8 1.4 3-0.2 0.2-0.5 0.4-0.8 0.6-0.6 0.3-1.1 0.5-1.8 0.3-0.6-0.5-0.5-1.5-0.6-2.3-3.1-0.6-6.3 0.4-9.3 0.9l-3.8 0.6c-3.3 0.6-6.6 1.4-9.7 2.6l-9.3 4.1 0.4 0.9c0.2 0.5 0.2 0.7 0 1.2-0.4 0.3-0.7 0.4-1.2 0.6-0.4-0.1-0.5-0.2-0.9-0.4-0.3-0.6-0.2-1.3-0.1-1.9v-0.2l0.1-0.4c0.3-1.6 1.8-2.3 3.1-3.1-0.8-1.2-1.7-1.9-1.9-3.3-0.3-2.6 1.1-5 2.6-7 0.7-0.9 1.5-1.9 2.4-2.7 0.8-0.8 1.9-1.3 2.9-1.8 0.8-0.5 1.6-1.1 2.5-1.5 2.3-1.2 5.2-2.1 7.8-2.4z"/><path class="b" d="m148.6 166.1c0.6 1.2 1 1.8 0.6 3.2-0.2 0.7-1 1.5-1.6 1.8-1.2 0.5-2.4 0.6-3.6 0.2-0.6-0.5-1-0.9-1.5-1.5 2-1.6 3.7-2.7 6.1-3.7z"/><path class="b" d="m154.5 164.5h0.1c0.8 0 2.9 0.3 3.5 0.7 0 0.1 0.1 0.2 0.1 0.3 0 0.8-0.7 2.2-1.2 2.7-0.8 0.8-1.7 0.8-2.7 0.7-2.1-0.5-2.8-1.6-4-3.3 1.4-0.5 2.7-0.8 4.2-1.1z"/></svg>